<?xml version="1.0" encoding="utf-8"?>
<!-- Generator: Adobe Illustrator 26.0.1, SVG Export Plug-In . SVG Version: 6.00 Build 0)  -->
<svg version="1.1" id="Layer_1" xmlns="http://www.w3.org/2000/svg" xmlns:xlink="http://www.w3.org/1999/xlink" x="0px" y="0px"
	 viewBox="0 0 595.28 841.89" style="enable-background:new 0 0 595.28 841.89;" xml:space="preserve">
<style type="text/css">
	.st0{fill:#FBDF00;}
	.st1{fill:#663515;}
	.st2{fill:url(#SVGID_1_);}
	.st3{fill:url(#SVGID_00000037692221772785588020000014502160466103182228_);}
	.st4{fill:url(#SVGID_00000106108214265902601380000003862712043413470122_);}
	.st5{fill:url(#SVGID_00000170960081643557134350000012323005158274165635_);}
	.st6{fill:url(#SVGID_00000015345610955710677640000013422425974104035000_);}
	.st7{fill:url(#SVGID_00000162321125268487751850000011213266044216756896_);}
	.st8{fill:url(#SVGID_00000165200201841380121160000007139359956542936724_);}
	.st9{fill:url(#SVGID_00000052798214134163121390000010254993010838855316_);}
	.st10{fill:url(#SVGID_00000146482668238093845210000011764075715371025572_);}
	.st11{fill:url(#SVGID_00000099620361292223986370000015769090151486441603_);}
	.st12{fill:url(#SVGID_00000132800002721177842810000001110142114975707522_);}
	.st13{fill:url(#SVGID_00000085966643750684757230000003573828352807573632_);}
	.st14{fill:url(#SVGID_00000110445469783481985820000015851912364704356020_);}
	.st15{fill:url(#SVGID_00000072974508675566781390000016125340859419949226_);}
	.st16{fill:url(#SVGID_00000007416963766347771390000006827530505098290592_);}
	.st17{fill:url(#SVGID_00000029022950419888293240000017127285587899724709_);}
	.st18{fill:url(#SVGID_00000111190844549824730450000005417543651743367075_);}
	.st19{fill:url(#SVGID_00000119113902813134397250000001425500889726124172_);}
	.st20{fill:url(#SVGID_00000028307130288036198190000011430334200967066776_);}
	.st21{fill:url(#SVGID_00000145050133912081351280000018068672378324585640_);}
	.st22{fill:url(#SVGID_00000020380010295706096920000003010670536304902550_);}
	.st23{fill:url(#SVGID_00000072248404411412039910000011341289181609458853_);}
	.st24{fill:url(#SVGID_00000150788469224172331520000017060333686196928417_);}
	.st25{fill:url(#SVGID_00000160879256358575313750000016898434957419543191_);}
	.st26{fill:url(#SVGID_00000095311843893945133040000006078333903019180990_);}
	.st27{fill:url(#SVGID_00000116222136316126143540000015745802287875481997_);}
	.st28{fill:url(#SVGID_00000018212645404152709710000009668506867617269893_);}
	.st29{fill:url(#SVGID_00000121973512671092866820000011181743125570223544_);}
	.st30{fill:url(#SVGID_00000131366095529509847210000010544226423748163213_);}
	.st31{fill:url(#SVGID_00000016763465366690205240000007468893402288976312_);}
	.st32{fill:url(#SVGID_00000022525851966571634290000001376075490745038721_);}
	.st33{fill:url(#SVGID_00000024722075045617397180000001758675003363146116_);}
	.st34{fill:url(#SVGID_00000177456426062906043840000014214438300046521520_);}
	.st35{fill:url(#SVGID_00000156546349635260601530000012298609212154219663_);}
	.st36{fill:url(#SVGID_00000033363764781559968200000006378693804147511190_);}
	.st37{fill:url(#SVGID_00000083802618311022882490000004901509491118892175_);}
	.st38{fill:url(#SVGID_00000106854342372511731900000018153561425564710308_);}
	.st39{fill:url(#SVGID_00000048472150994022123920000007414170733953508284_);}
	.st40{fill:#F26522;}
	.st41{font-family:'Gabriola';}
	.st42{font-size:144.1802px;}
</style>
<g>
	<g>
		<g>
			<path class="st0" d="M90.12,574.64c-0.47,0-0.74-0.11-0.83-0.22c-0.09-0.1-0.12-0.21-0.1-0.35c0.06-0.39,0.64-1.56,4.9-3.98
				c4.13-2.53,9.12-6.45,15.7-12.33c16.05-13.92,23.77-28.45,27.77-51.82c4.09-23.89,4.2-57.73,4.2-110.97V272.26
				c0-66.2,0.09-78.14-0.65-91.73c-0.64-12.44-3.07-25.48-16.53-27.79c-2.65-0.43-5.62-0.85-10.45-0.85c-3.85,0-4.65-0.58-4.65-1.06
				c0-0.69,1.52-1.49,5.79-1.49c12.59,0,29.17,0.73,37.14,1.07c2.74,0.12,4.55,0.2,5.02,0.2c0.54,0,2.94-0.11,6.26-0.26
				c8.36-0.38,22.36-1.01,30.3-1.01c4.21,0,5.78,0.91,5.78,1.49c0,0.53-1.35,1.06-3.92,1.06c-2.94,0-5.99,0-9.74,0.85
				c-9.84,2.33-11.9,14.74-12.55,27.79c-0.75,13.59-0.84,25.52-0.84,91.73v101.91c0,69.18,0.09,95.07-11.08,125.18
				c-5.15,13.76-14.72,28.3-27.75,42.07c-12.25,12.94-26.97,24.51-41.48,32.55C91.65,574.4,90.83,574.65,90.12,574.64"/>
			<path class="st1" d="M150.95,499c-0.05,0.16-0.22,0.73-0.25,0.85h10.74c0.06-0.17,0.28-0.74,0.32-0.85H150.95"/>
			<path class="st1" d="M193.98,149.12c-11.19,0-34.69,1.27-36.56,1.27c-1.87,0-25.37-1.27-42.15-1.27c-4.25,0-5.8,0.76-5.95,1.57
				c13.9,0.03,21.87,0.78,30.82,5.72c8.33,4.6,13.94,9.56,17.28,13.09c3.17-3.83,8.78-8.93,15.45-13.45
				c7.91-5.35,13.91-5.37,27.06-5.37C199.75,149.88,197.87,149.12,193.98,149.12"/>
			
				<linearGradient id="SVGID_1_" gradientUnits="userSpaceOnUse" x1="0" y1="0" x2="1" y2="0" gradientTransform="matrix(-1.610494e-14 -113.9894 -100.1475 1.833089e-14 75.356 614.7172)">
				<stop  offset="0" style="stop-color:#653515"/>
				<stop  offset="0.419" style="stop-color:#653515"/>
				<stop  offset="0.6775" style="stop-color:#9A6F20"/>
				<stop  offset="1" style="stop-color:#FBDE00"/>
			</linearGradient>
			<path class="st2" d="M150.73,499.42h-12.28c-3.75,28.01-11.75,43.4-28.77,58.17c-5.22,4.67-10.82,9.34-15.67,12.31
				c-3.73,2.12-5.6,3.82-4.85,4.67C117.78,557.86,140.14,534.62,150.73,499.42"/>
			
				<linearGradient id="SVGID_00000084522673224773194050000016057843308831413150_" gradientUnits="userSpaceOnUse" x1="0" y1="0" x2="1" y2="0" gradientTransform="matrix(1.912272e-14 355.4621 312.2978 -2.176578e-14 75.356 157.2608)">
				<stop  offset="0" style="stop-color:#FBDE00"/>
				<stop  offset="0.043" style="stop-color:#FBDE00"/>
				<stop  offset="1" style="stop-color:#FBDE00"/>
			</linearGradient>
			<path style="fill:url(#SVGID_00000084522673224773194050000016057843308831413150_);" d="M140.14,156.41
				c-8.95-4.94-16.92-5.7-30.82-5.72c-0.01,0.04-0.01,0.09-0.01,0.13c0,0.85,1.49,1.27,4.85,1.27c4.85,0,7.83,0.42,10.45,0.85
				c8.92,1.54,13.14,7.76,15.07,16.56c0.73,3.35,1.14,7.06,1.35,11.04c0.75,13.59,0.75,25.48,0.75,91.71v122.71
				c0,48.47-0.16,80.92-3.31,104.45h12.28c4.34-14.43,6.7-30.86,6.7-49.68V169.5C154.08,165.97,148.47,161.01,140.14,156.41"/>
			
				<linearGradient id="SVGID_00000103230161415226213320000012819443349465197485_" gradientUnits="userSpaceOnUse" x1="0" y1="0" x2="1" y2="0" gradientTransform="matrix(27.8067 -99.1707 -87.1282 -31.65 184.5386 246.7293)">
				<stop  offset="0" style="stop-color:#653515"/>
				<stop  offset="0.698" style="stop-color:#653515"/>
				<stop  offset="0.7776" style="stop-color:#9A6F20"/>
				<stop  offset="0.877" style="stop-color:#FBDE00"/>
				<stop  offset="1" style="stop-color:#FBDE00"/>
			</linearGradient>
			<path style="fill:url(#SVGID_00000103230161415226213320000012819443349465197485_);" d="M173.09,272.26
				c0-66.24,0-78.13,0.75-91.71c0.2-4.02,0.54-7.72,1.11-11.04c1.52-8.94,4.67-15.01,11.21-16.56c3.73-0.85,6.71-0.85,9.7-0.85
				c2.24,0,4.1-0.42,4.1-1.27c0-0.04-0.01-0.09-0.02-0.13c-13.15,0-19.15,0.02-27.06,5.37c-6.67,4.51-12.28,9.62-15.45,13.45v280.24
				c0,18.82-2.36,35.25-6.7,49.68h11.18c11.19-30.15,11.19-56.47,11.19-125.26L173.09,272.26"/>
			
				<linearGradient id="SVGID_00000160184789142348313570000012583521358463023490_" gradientUnits="userSpaceOnUse" x1="0" y1="0" x2="1" y2="0" gradientTransform="matrix(-3.416257e-14 -241.7997 -212.4376 3.888437e-14 75.356 742.2346)">
				<stop  offset="0" style="stop-color:#FBDE00"/>
				<stop  offset="0.518" style="stop-color:#FBDE00"/>
				<stop  offset="0.5723" style="stop-color:#EFD10B"/>
				<stop  offset="0.6571" style="stop-color:#D8B61B"/>
				<stop  offset="0.7617" style="stop-color:#B58E21"/>
				<stop  offset="0.8809" style="stop-color:#8C601E"/>
				<stop  offset="1" style="stop-color:#653515"/>
			</linearGradient>
			<path style="fill:url(#SVGID_00000160184789142348313570000012583521358463023490_);" d="M89.16,574.58
				c0.37,0.42,1.87,0.42,3.36-0.42c29.1-16.14,58.57-45.86,69.39-74.73h-11.18C140.14,534.62,117.78,557.86,89.16,574.58"/>
			
				<linearGradient id="SVGID_00000104688624772186448940000007824997330639859643_" gradientUnits="userSpaceOnUse" x1="0" y1="0" x2="1" y2="0" gradientTransform="matrix(1.912272e-14 355.4621 312.2978 -2.176578e-14 75.356 157.2608)">
				<stop  offset="0" style="stop-color:#FBDE00"/>
				<stop  offset="0.043" style="stop-color:#FBDE00"/>
				<stop  offset="1" style="stop-color:#FBDE00"/>
			</linearGradient>
			<path style="fill:url(#SVGID_00000104688624772186448940000007824997330639859643_);" d="M157.43,169.5
				c-3.35-3.53-8.95-8.49-17.28-13.09c-8.95-4.94-16.92-5.7-30.82-5.72c-0.01,0.04-0.01,0.09-0.01,0.13c0,0.85,1.49,1.27,4.85,1.27
				c4.85,0,7.83,0.42,10.45,0.85c8.92,1.54,13.14,7.76,15.07,16.56c0.49,2.22,0.83,4.61,1.06,7.12h16.7L157.43,169.5"/>
			
				<linearGradient id="SVGID_00000155842262429650116720000001747447365113098418_" gradientUnits="userSpaceOnUse" x1="0" y1="0" x2="1" y2="0" gradientTransform="matrix(1.475868e-14 274.3413 241.0276 -1.679856e-14 75.356 172.5466)">
				<stop  offset="0" style="stop-color:#FBDE00"/>
				<stop  offset="0.029" style="stop-color:#FBDE00"/>
				<stop  offset="0.09" style="stop-color:#FBCF08;stop-opacity:0.8"/>
				<stop  offset="0.323" style="stop-color:#F9C013;stop-opacity:0.5"/>
				<stop  offset="0.438" style="stop-color:#FBCF08;stop-opacity:0.2"/>
				<stop  offset="0.611" style="stop-color:#F9C013;stop-opacity:0.5"/>
				<stop  offset="0.923" style="stop-color:#FBCF08;stop-opacity:0.5"/>
				<stop  offset="0.984" style="stop-color:#FBDE00"/>
				<stop  offset="1" style="stop-color:#FBDE00"/>
			</linearGradient>
			<path style="fill:url(#SVGID_00000155842262429650116720000001747447365113098418_);" d="M157.43,176.63h-16.7
				c0.12,1.27,0.21,2.58,0.28,3.91c0.75,13.59,0.75,25.48,0.75,91.71v122.71c0,20.02-0.03,37.29-0.28,52.35h15.95L157.43,176.63"/>
			
				<linearGradient id="SVGID_00000163060209851707126460000013790008256138982052_" gradientUnits="userSpaceOnUse" x1="0" y1="0" x2="1" y2="0" gradientTransform="matrix(1.794839e-14 333.6331 293.1195 -2.042914e-14 75.356 164.7848)">
				<stop  offset="0" style="stop-color:#32150C;stop-opacity:0"/>
				<stop  offset="0.019" style="stop-color:#32150C;stop-opacity:0"/>
				<stop  offset="0.097" style="stop-color:#32150C;stop-opacity:0.2"/>
				<stop  offset="0.337" style="stop-color:#32150C;stop-opacity:0.5"/>
				<stop  offset="0.632" style="stop-color:#32150C;stop-opacity:0.2"/>
				<stop  offset="0.856" style="stop-color:#32150C;stop-opacity:0.5"/>
				<stop  offset="0.996" style="stop-color:#32150C;stop-opacity:0"/>
				<stop  offset="1" style="stop-color:#32150C;stop-opacity:0"/>
			</linearGradient>
			<path style="fill:url(#SVGID_00000163060209851707126460000013790008256138982052_);" d="M172.88,156.05
				c-6.67,4.51-12.28,9.62-15.45,13.45v280.24c0,18.82-2.36,35.25-6.7,49.68h11.18c11.19-30.15,11.19-56.47,11.19-125.26V272.26
				c0-66.24,0-78.13,0.75-91.71c0.2-4.02,0.54-7.72,1.11-11.04c0.83-4.89,2.16-8.93,4.25-11.83l-3.12-3.55
				C175.03,154.68,173.97,155.31,172.88,156.05"/>
			
				<linearGradient id="SVGID_00000044857883106412194300000005770849220941856651_" gradientUnits="userSpaceOnUse" x1="0" y1="0" x2="1" y2="0" gradientTransform="matrix(14.1794 -28.6778 -25.1954 -16.1392 178.2751 174.5507)">
				<stop  offset="0" style="stop-color:#FBDE00;stop-opacity:0"/>
				<stop  offset="0.804" style="stop-color:#FBDE00;stop-opacity:0"/>
				<stop  offset="0.8208" style="stop-color:#EFD10B;stop-opacity:0.1127"/>
				<stop  offset="0.847" style="stop-color:#D8B61B;stop-opacity:0.2885"/>
				<stop  offset="0.8793" style="stop-color:#B58E21;stop-opacity:0.5056"/>
				<stop  offset="0.9162" style="stop-color:#8C601E;stop-opacity:0.7529"/>
				<stop  offset="0.953" style="stop-color:#653515"/>
				<stop  offset="1" style="stop-color:#653515"/>
			</linearGradient>
			<path style="fill:url(#SVGID_00000044857883106412194300000005770849220941856651_);" d="M186.15,152.94
				c3.73-0.85,6.71-0.85,9.7-0.85c2.24,0,4.1-0.42,4.1-1.27c0-0.04-0.01-0.09-0.02-0.13c-9.61,0-15.4,0.01-20.91,2.11l2.27,2.59
				C182.66,154.22,184.27,153.39,186.15,152.94"/>
			
				<linearGradient id="SVGID_00000114051150626840947890000017574122571080874159_" gradientUnits="userSpaceOnUse" x1="0" y1="0" x2="1" y2="0" gradientTransform="matrix(90.6162 0 0 -103.1407 109.3179 44.2438)">
				<stop  offset="0" style="stop-color:#FBDE00"/>
				<stop  offset="0.026" style="stop-color:#FBDE00"/>
				<stop  offset="0.0473" style="stop-color:#EBCF12;stop-opacity:0.9483"/>
				<stop  offset="0.0816" style="stop-color:#CBAF24;stop-opacity:0.865"/>
				<stop  offset="0.1248" style="stop-color:#9D802B;stop-opacity:0.7603"/>
				<stop  offset="0.175" style="stop-color:#684D24;stop-opacity:0.6384"/>
				<stop  offset="0.2306" style="stop-color:#34170D;stop-opacity:0.5035"/>
				<stop  offset="0.232" style="stop-color:#32150C;stop-opacity:0.5"/>
				<stop  offset="0.417" style="stop-color:#32150C"/>
				<stop  offset="0.564" style="stop-color:#32150C"/>
				<stop  offset="0.663" style="stop-color:#32150C;stop-opacity:0.5"/>
				<stop  offset="0.805" style="stop-color:#32150C;stop-opacity:0"/>
				<stop  offset="1" style="stop-color:#32150C;stop-opacity:0"/>
			</linearGradient>
			<path style="fill:url(#SVGID_00000114051150626840947890000017574122571080874159_);" d="M193.98,149.12
				c-11.19,0-34.69,1.27-36.56,1.27c-1.87,0-25.37-1.27-42.15-1.27c-4.25,0-5.8,0.76-5.95,1.57c13.9,0.03,21.87,0.78,30.82,5.72
				c8.33,4.6,13.94,9.56,17.28,13.09c3.17-3.83,8.78-8.93,15.45-13.45c7.91-5.35,13.91-5.37,27.06-5.37
				C199.75,149.88,197.87,149.12,193.98,149.12"/>
			
				<radialGradient id="SVGID_00000026868077094821449040000005433789590499079838_" cx="0" cy="0" r="1" gradientTransform="matrix(16.6882 7.9911 -5.0377 13.6295 137.6542 153.7147)" gradientUnits="userSpaceOnUse">
				<stop  offset="0" style="stop-color:#FFFFFF;stop-opacity:0.85"/>
				<stop  offset="0.682" style="stop-color:#FFFFFF;stop-opacity:0.5"/>
				<stop  offset="1" style="stop-color:#FFFFFF;stop-opacity:0"/>
			</radialGradient>
			<path style="fill:url(#SVGID_00000026868077094821449040000005433789590499079838_);" d="M157.43,169.5
				c-3.35-3.53-8.95-8.49-17.28-13.09c-8.95-4.94-16.92-5.7-30.82-5.72c-0.01,0.04-0.01,0.09-0.01,0.13c0,0.85,1.49,1.27,4.85,1.27
				c4.85,0,7.83,0.42,10.45,0.85c8.92,1.54,13.14,7.76,15.07,16.56c0.08,0.37,0.16,0.74,0.23,1.11h17.53L157.43,169.5"/>
			
				<linearGradient id="SVGID_00000005247824008569764220000011541563784833969286_" gradientUnits="userSpaceOnUse" x1="0" y1="0" x2="1" y2="0" gradientTransform="matrix(-1.610494e-14 -113.9894 -100.1475 1.833089e-14 75.356 614.7172)">
				<stop  offset="0" style="stop-color:#FBDE00"/>
				<stop  offset="0.359" style="stop-color:#FBDE00"/>
				<stop  offset="0.3658" style="stop-color:#EFD10B"/>
				<stop  offset="0.3763" style="stop-color:#D8B61B"/>
				<stop  offset="0.3893" style="stop-color:#B58E21"/>
				<stop  offset="0.4042" style="stop-color:#8C601E"/>
				<stop  offset="0.419" style="stop-color:#653515"/>
				<stop  offset="0.6775" style="stop-color:#9A6F20"/>
				<stop  offset="1" style="stop-color:#FBDE00"/>
			</linearGradient>
			<path style="fill:url(#SVGID_00000005247824008569764220000011541563784833969286_);" d="M150.73,499.42h-12.28
				c-3.75,28.01-11.75,43.4-28.77,58.17c-5.22,4.67-10.82,9.34-15.67,12.31c-3.73,2.12-5.6,3.82-4.85,4.67
				C117.78,557.86,140.14,534.62,150.73,499.42"/>
			
				<linearGradient id="SVGID_00000071548289530319334940000004865048094753426623_" gradientUnits="userSpaceOnUse" x1="0" y1="0" x2="1" y2="0" gradientTransform="matrix(-3.416257e-14 -241.7997 -212.4376 3.888437e-14 75.356 742.2346)">
				<stop  offset="0" style="stop-color:#FBDE00"/>
				<stop  offset="0.693" style="stop-color:#FBDE00"/>
				<stop  offset="0.7268" style="stop-color:#EFD10B;stop-opacity:0.8873"/>
				<stop  offset="0.7796" style="stop-color:#D8B61B;stop-opacity:0.7115"/>
				<stop  offset="0.8447" style="stop-color:#B58E21;stop-opacity:0.4944"/>
				<stop  offset="0.9189" style="stop-color:#8C601E;stop-opacity:0.2471"/>
				<stop  offset="0.993" style="stop-color:#653515;stop-opacity:0"/>
				<stop  offset="1" style="stop-color:#653515;stop-opacity:0"/>
			</linearGradient>
			<path style="fill:url(#SVGID_00000071548289530319334940000004865048094753426623_);" d="M89.16,574.58
				c0.37,0.42,1.87,0.42,3.36-0.42c29.1-16.14,58.57-45.86,69.39-74.73h-11.18C140.14,534.62,117.78,557.86,89.16,574.58"/>
			
				<radialGradient id="SVGID_00000163058068559930732530000009535633442925045122_" cx="0" cy="0" r="1" gradientTransform="matrix(25.1395 0 0 28.6141 155.3255 461.2448)" gradientUnits="userSpaceOnUse">
				<stop  offset="0" style="stop-color:#32150C"/>
				<stop  offset="0.541" style="stop-color:#32150C;stop-opacity:0.5"/>
				<stop  offset="1" style="stop-color:#32150C;stop-opacity:0"/>
			</radialGradient>
			<path style="fill:url(#SVGID_00000163058068559930732530000009535633442925045122_);" d="M157.43,422.5v27.24
				c0,18.82-2.36,35.25-6.7,49.68h11.18c8.09-21.8,10.33-41.61,10.95-76.92L157.43,422.5"/>
			
				<radialGradient id="SVGID_00000005267768984717548150000005042980758724434608_" cx="0" cy="0" r="1" gradientTransform="matrix(13.6411 0 0 -15.5265 154.2474 475.5234)" gradientUnits="userSpaceOnUse">
				<stop  offset="0" style="stop-color:#FFFFFF;stop-opacity:0.85"/>
				<stop  offset="0.397" style="stop-color:#FFFFFF;stop-opacity:0.5"/>
				<stop  offset="1" style="stop-color:#FFFFFF;stop-opacity:0"/>
			</radialGradient>
			<path style="fill:url(#SVGID_00000005267768984717548150000005042980758724434608_);" d="M150.73,499.42
				c4.34-14.43,6.7-30.86,6.7-49.68v-2.43h-15.95c-0.36,21.4-1.18,38.29-3.03,52.11L150.73,499.42"/>
			
				<radialGradient id="SVGID_00000020394938896442563510000016062973829129513625_" cx="0" cy="0" r="1" gradientTransform="matrix(0 373.338 -4.9102 0 157.2386 319.9609)" gradientUnits="userSpaceOnUse">
				<stop  offset="0" style="stop-color:#FFFFFF;stop-opacity:0.7"/>
				<stop  offset="0.936" style="stop-color:#FFFFFF;stop-opacity:0"/>
				<stop  offset="1" style="stop-color:#FFFFFF;stop-opacity:0"/>
			</radialGradient>
			<path style="fill:url(#SVGID_00000020394938896442563510000016062973829129513625_);" d="M140.14,156.41
				c-8.95-4.94-16.92-5.7-30.82-5.72c-0.01,0.04-0.01,0.09-0.01,0.13c0,0.85,1.49,1.27,4.85,1.27c4.85,0,7.83,0.42,10.45,0.85
				c8.92,1.54,13.14,7.76,15.07,16.56c0.73,3.35,1.14,7.06,1.35,11.04c0.75,13.59,0.75,25.48,0.75,91.71v122.71
				c0,48.47-0.16,80.92-3.31,104.45h12.28c4.34-14.43,6.7-30.86,6.7-49.68V169.5C154.08,165.97,148.47,161.01,140.14,156.41"/>
			
				<radialGradient id="SVGID_00000169521261650542977620000006814860469037378719_" cx="0" cy="0" r="1" gradientTransform="matrix(0 191.1571 -3.5369 0 157.4338 297.7371)" gradientUnits="userSpaceOnUse">
				<stop  offset="0" style="stop-color:#32150C;stop-opacity:0.5"/>
				<stop  offset="1" style="stop-color:#32150C;stop-opacity:0"/>
			</radialGradient>
			<path style="fill:url(#SVGID_00000169521261650542977620000006814860469037378719_);" d="M173.09,272.26
				c0-66.24,0-78.13,0.75-91.71c0.2-4.02,0.54-7.72,1.11-11.04c1.52-8.94,4.67-15.01,11.21-16.56c3.73-0.85,6.71-0.85,9.7-0.85
				c2.24,0,4.1-0.42,4.1-1.27c0-0.04-0.01-0.09-0.02-0.13c-13.15,0-19.15,0.02-27.06,5.37c-6.67,4.51-12.28,9.62-15.45,13.45v280.24
				c0,18.82-2.36,35.25-6.7,49.68h11.18c11.19-30.15,11.19-56.47,11.19-125.26L173.09,272.26"/>
		</g>
		<g>
			<path class="st0" d="M354.02,162.49c-11.41,0-21.42,1.32-25.05,2.56l-0.26,0.07c-1.78,0.81-3.04,1.34-3.04,4.37v142.24
				c0,1.74,0.84,2.66,2.04,3.57c5.6,3.75,20.6,5.98,40.06,5.98c7.66,0,18.93-0.84,28.11-8.11c14.3-11.16,22.85-35.67,22.85-65.56
				c0-26.03-5.99-47.64-17.34-62.5C390.09,170.32,373.72,162.49,354.02,162.49 M510.32,470.12c-20.22,0-29.9-2.06-39.83-8.15
				c-14.77-8.99-27.02-27.44-45.55-55.28c-1.54-2.31-3.12-4.72-4.75-7.16c-8.59-12.81-17.6-26.93-25.55-39.39
				c-6.41-10.04-11.94-18.72-15.49-23.9c-1.03-1.57-1.83-2.21-2.76-2.21l-49.33-0.85c-1.27,0-1.4,0.16-1.4,1.91v11.89
				c0,41.52,0.09,74.32,1.96,92.16c0.99,10.88,3.64,25.55,14.75,27.36c4.29,0.81,8.19,0.92,11.09,0.92c1.16,0,2.25-0.02,3.28-0.04
				c0.88-0.02,1.72-0.03,2.48-0.03c2.06,0,2.8,0.55,2.8,1.06c0,0.25-0.39,1.49-8.02,1.49c-13.53,0-29.71-0.73-37.48-1.08
				c-2.54-0.12-4.22-0.19-4.67-0.19c-0.54,0-2.94,0.11-6.26,0.26c-8.36,0.38-22.36,1.01-30.3,1.01c-5.5,0-5.78-1.24-5.78-1.49
				c0-0.51,0.73-1.06,2.8-1.06c3.31,0,7.85,0,11.23-0.85c7.86-1.79,9.49-15.96,10.87-27.35c1.87-17.85,1.77-50.65,1.77-92.17v-74.73
				c0-66.2,0.09-78.14-0.65-91.73c-0.64-12.44-3.07-25.48-16.53-27.79c-2.65-0.43-5.62-0.85-10.45-0.85c-3.85,0-4.65-0.58-4.65-1.06
				c0-0.69,1.52-1.49,5.79-1.49c13.26,0,28.21,0.68,36.24,1.04c3.13,0.14,5.2,0.24,5.92,0.24c1.53,0,6.42-0.18,12.61-0.4
				c10.2-0.37,24.17-0.87,31.41-0.87c22.41,0,48.03,2.21,68.16,18.64c9.53,7.81,25.66,28.73,25.66,57.57
				c0,34.53-14.32,65.64-45.08,97.93c-0.07,0.07-0.08,0.2-0.02,0.29c3.73,5.44,7.39,10.78,10.97,16.01
				c25.56,37.34,47.64,69.59,66.64,92.71c17.34,20.84,31.84,31.52,45.62,33.61c7.1,1.27,12.34,1.27,14.57,1.27
				c2.61,0,3.17,0.96,3.17,1.17c0,0.73-1.04,1.59-8.77,1.59L510.32,470.12"/>
			<path class="st0" d="M327.78,463.89c-8.06-4.76-12.38-9.8-15.92-13.86c-3.17,3.83-8.42,9.05-15.09,13.56
				c-8.01,5.42-13.92,4.96-27.43,4.96c0.09,0.51,0.84,1.57,5.96,1.57c11.19,0,34.69-1.27,36.56-1.27s24.25,1.27,42.15,1.27
				c7.83,0,8.21-1.27,8.21-1.7C342.44,468.42,336.3,468.94,327.78,463.89"/>
			
				<linearGradient id="SVGID_00000178920671055985502420000016417783572582542010_" gradientUnits="userSpaceOnUse" x1="0" y1="0" x2="1" y2="0" gradientTransform="matrix(82.2413 305.605 268.4949 -93.6083 249.6599 166.8824)">
				<stop  offset="0" style="stop-color:#FBDE00"/>
				<stop  offset="0.026" style="stop-color:#FBDE00"/>
				<stop  offset="0.919" style="stop-color:#FBDE00"/>
				<stop  offset="0.9259" style="stop-color:#EFD10B"/>
				<stop  offset="0.9366" style="stop-color:#D8B61B"/>
				<stop  offset="0.9498" style="stop-color:#B58E21"/>
				<stop  offset="0.9649" style="stop-color:#8C601E"/>
				<stop  offset="0.98" style="stop-color:#653515"/>
				<stop  offset="1" style="stop-color:#653515"/>
			</linearGradient>
			<path style="fill:url(#SVGID_00000178920671055985502420000016417783572582542010_);" d="M294.79,155.4
				c-8.95-4.94-17.13-4.72-31.04-4.71c-0.01,0.04-0.01,0.09-0.01,0.13c0,0.85,1.49,1.27,4.85,1.27c4.85,0,7.83,0.42,10.45,0.85
				c12.31,2.12,15.67,13.16,16.41,27.6c0.75,13.59,0.75,25.48,0.75,91.71v48.59v26.14c0,40.76,0,74.31-1.87,92.14
				c-1.49,12.31-3.36,25.48-10.82,27.17c-3.36,0.85-7.83,0.85-11.19,0.85c-2.61,0-2.98,0.85-2.98,1.27c0,0.04,0,0.08,0.01,0.13
				c13.51,0,19.42,0.46,27.43-4.96c6.67-4.51,11.92-9.73,15.09-13.56V323.31V169.5C308.51,165.97,303.13,160,294.79,155.4"/>
			
				<linearGradient id="SVGID_00000163055312700498188660000010111284367377232295_" gradientUnits="userSpaceOnUse" x1="0" y1="0" x2="1" y2="0" gradientTransform="matrix(4.1669 45.628 40.0873 -4.7428 426.1732 312.8487)">
				<stop  offset="0" style="stop-color:#FBDE00"/>
				<stop  offset="0.304" style="stop-color:#FBDE00"/>
				<stop  offset="0.398" style="stop-color:#FBDE00"/>
				<stop  offset="0.916" style="stop-color:#FBDE00"/>
				<stop  offset="1" style="stop-color:#FBDE00"/>
			</linearGradient>
			<path style="fill:url(#SVGID_00000163055312700498188660000010111284367377232295_);" d="M471.52,443.16
				c-24.99-30.15-63.37-87.9-77.6-110.55c-3.34,0-10.92-3.76-16.93-4.73c-5.66-0.92-32.94-0.64-55.07-2.69l4.19,8.55
				c0.11-0.34,0.38-0.34,1.04-0.34l49.24,0.85c0.75,0,1.49,0.42,2.61,2.12c7.83,11.46,25.37,39.91,41.03,63.27
				c21.26,31.85,34.32,52.65,50.36,62.42c9.7,5.94,19.03,8.07,39.92,8.07h26.49c8.04,0,8.92-0.81,8.95-1.65
				C529.35,468.48,495.39,471.95,471.52,443.16"/>
			
				<linearGradient id="SVGID_00000055681350455056767560000013116364338730246834_" gradientUnits="userSpaceOnUse" x1="0" y1="0" x2="1" y2="0" gradientTransform="matrix(43.3216 -28.3933 -24.9455 -49.3094 367.512 297.5927)">
				<stop  offset="0" style="stop-color:#653515"/>
				<stop  offset="0.394" style="stop-color:#653515"/>
				<stop  offset="0.4091" style="stop-color:#9A6F20"/>
				<stop  offset="0.428" style="stop-color:#FBDE00"/>
				<stop  offset="1" style="stop-color:#FBDE00"/>
			</linearGradient>
			<path style="fill:url(#SVGID_00000055681350455056767560000013116364338730246834_);" d="M359.24,467.15
				c-4.1,0-10.07,0.42-16.79-0.85c-10.45-1.7-13.43-14.86-14.55-27.17c-1.87-17.83-1.87-51.38-1.87-92.14V335.1
				c0-0.71,0-1.12,0.08-1.36l-4.19-8.55l4.12-13.16c-0.01-0.1-0.02-0.18-0.02-0.29V169.5c0-1.25,0.2-2.05,0.57-2.62l-3.31-7.64
				c-5.65,3.43-8.65,6.45-11.44,10.26v153.81v126.72c3.54,4.07,7.86,9.1,15.92,13.86c8.53,5.04,14.66,4.53,34.44,4.53
				C362.22,468,361.85,467.15,359.24,467.15"/>
			
				<linearGradient id="SVGID_00000136379204783041051190000014843025279282828705_" gradientUnits="userSpaceOnUse" x1="0" y1="0" x2="1" y2="0" gradientTransform="matrix(84.8377 -149.4354 -131.2892 -96.5636 322.6795 311.4645)">
				<stop  offset="0" style="stop-color:#653515"/>
				<stop  offset="0.132" style="stop-color:#653515"/>
				<stop  offset="0.3215" style="stop-color:#9A6F20"/>
				<stop  offset="0.558" style="stop-color:#FBDE00"/>
				<stop  offset="1" style="stop-color:#FBDE00"/>
			</linearGradient>
			<path style="fill:url(#SVGID_00000136379204783041051190000014843025279282828705_);" d="M355.25,155.91
				c-11.19,0-26.14-0.21-31.95,3.33l3.31,7.64c0.51-0.78,1.33-1.14,2.41-1.63c3.73-1.27,13.8-2.55,24.99-2.55
				c39.92,0,64.54,31.85,64.54,84.92c0,32.27-9.7,55.2-22.76,65.39c-8.58,6.79-19.03,8.07-27.98,8.07c-16.41,0-33.57-1.7-39.92-5.94
				c-1.05-0.8-1.77-1.61-1.85-3.11l-4.12,13.16c22.13,2.05,49.41,1.77,55.07,2.69c6,0.97,13.59,4.73,16.93,4.73
				c0.69,0,2.52-7.15,3.94-9.62c10.74-12.4,36.44-43.28,36.44-91.82C434.31,188.29,406.87,155.91,355.25,155.91"/>
			<path class="st1" d="M542.4,467.15c-2.24,0-7.46,0-14.55-1.27c-11.19-1.7-25.37-9.34-45.51-33.54
				c-21.64-26.33-47-64.12-77.59-108.7l-6.88-0.64c-1.4,2.43-3.26,9.62-3.94,9.62c14.22,22.65,52.6,80.4,77.6,110.55
				c23.87,28.79,57.83,25.32,74.24,25.32c0-0.02,0-0.04,0-0.05C545.76,468,545.02,467.15,542.4,467.15"/>
			
				<linearGradient id="SVGID_00000111892624011813857740000012061505129344050323_" gradientUnits="userSpaceOnUse" x1="0" y1="0" x2="1" y2="0" gradientTransform="matrix(-43.9521 176.7927 155.3245 50.0269 369.3847 144.9218)">
				<stop  offset="0" style="stop-color:#653515"/>
				<stop  offset="0.563" style="stop-color:#653515"/>
				<stop  offset="0.7574" style="stop-color:#9A6F20"/>
				<stop  offset="1" style="stop-color:#FBDE00"/>
			</linearGradient>
			<path style="fill:url(#SVGID_00000111892624011813857740000012061505129344050323_);" d="M424.15,167.8
				c-19.77-16.13-44.77-18.68-68.27-18.68c-11.56,0-39.92,1.27-44.02,1.27c-2.61,0-23.87-1.27-42.15-1.27
				c-4.24,0-5.8,0.76-5.95,1.57c13.91-0.01,22.1-0.23,31.04,4.71c8.33,4.6,13.72,10.57,17.07,14.11c2.79-3.81,5.79-6.83,11.44-10.26
				c5.81-3.53,20.76-3.33,31.95-3.33c51.61,0,79.06,32.38,79.06,75.26c0,48.55-25.58,79.24-36.44,91.82l6.88,0.64
				c33.57-35.24,45.14-66.66,45.14-98.08C449.89,196.25,433.48,175.45,424.15,167.8"/>
			
				<linearGradient id="SVGID_00000164510371862661120210000016289728850380412826_" gradientUnits="userSpaceOnUse" x1="0" y1="0" x2="1" y2="0" gradientTransform="matrix(1.344365e-14 249.8969 219.5515 -1.530177e-14 229.7915 180.3126)">
				<stop  offset="0" style="stop-color:#FBDE00"/>
				<stop  offset="0.024" style="stop-color:#FBDE00"/>
				<stop  offset="0.09" style="stop-color:#FBCF08;stop-opacity:0.8"/>
				<stop  offset="0.323" style="stop-color:#F9C013;stop-opacity:0.5"/>
				<stop  offset="0.438" style="stop-color:#FBCF08;stop-opacity:0.2"/>
				<stop  offset="0.611" style="stop-color:#F9C013;stop-opacity:0.5"/>
				<stop  offset="0.923" style="stop-color:#FBCF08;stop-opacity:0.5"/>
				<stop  offset="0.994" style="stop-color:#FBDE00"/>
				<stop  offset="1" style="stop-color:#FBDE00"/>
			</linearGradient>
			<path style="fill:url(#SVGID_00000164510371862661120210000016289728850380412826_);" d="M295.3,178.42
				c0.06,0.42,0.11,1.44,0.15,2.23c0.75,13.59,0.75,25.37,0.75,91.61v74.73c0,35.93,0,66.24-1.28,85.35h16.94V178.42H295.3"/>
			
				<linearGradient id="SVGID_00000177483863475533336680000005241013107784711296_" gradientUnits="userSpaceOnUse" x1="0" y1="0" x2="1" y2="0" gradientTransform="matrix(1.209344e-14 224.7985 197.5009 -1.376494e-14 229.7915 206.0988)">
				<stop  offset="0" style="stop-color:#32150C;stop-opacity:0"/>
				<stop  offset="0.016" style="stop-color:#32150C;stop-opacity:0"/>
				<stop  offset="0.136" style="stop-color:#32150C;stop-opacity:0.2"/>
				<stop  offset="0.337" style="stop-color:#32150C;stop-opacity:0.5"/>
				<stop  offset="0.632" style="stop-color:#32150C;stop-opacity:0.2"/>
				<stop  offset="0.856" style="stop-color:#32150C;stop-opacity:0.5"/>
				<stop  offset="0.994" style="stop-color:#32150C;stop-opacity:0"/>
				<stop  offset="1" style="stop-color:#32150C;stop-opacity:0"/>
			</linearGradient>
			<path style="fill:url(#SVGID_00000177483863475533336680000005241013107784711296_);" d="M326.04,335.1c0-0.71,0-1.12,0.08-1.36
				l-4.19-8.55l4.12-13.16c-0.01-0.1-0.02-0.18-0.02-0.29V200.5h-14.18v122.81v111.57h15.66c-1.48-18.63-1.48-50.16-1.48-87.89
				L326.04,335.1"/>
			
				<radialGradient id="SVGID_00000064344575702963189300000010814978970163479457_" cx="0" cy="0" r="1" gradientTransform="matrix(23.9539 7.1115 -6.2183 27.1345 493.8304 453.0156)" gradientUnits="userSpaceOnUse">
				<stop  offset="0" style="stop-color:#FFFFFF;stop-opacity:0.85"/>
				<stop  offset="0.682" style="stop-color:#FFFFFF;stop-opacity:0.5"/>
				<stop  offset="1" style="stop-color:#FFFFFF;stop-opacity:0"/>
			</radialGradient>
			<path style="fill:url(#SVGID_00000064344575702963189300000010814978970163479457_);" d="M471.52,443.16
				c-3.93-4.75-8.2-10.18-12.65-16.05l-12.14,11.41c8.1,10.71,15.5,18.56,23.68,23.53c9.7,5.94,19.03,8.07,39.92,8.07h26.49
				c8.04,0,8.92-0.81,8.95-1.65C529.35,468.48,495.39,471.95,471.52,443.16"/>
			
				<radialGradient id="SVGID_00000165939737695272984230000014106884089668037795_" cx="0" cy="0" r="1" gradientTransform="matrix(38.2221 0 0 43.505 421.2379 187.6413)" gradientUnits="userSpaceOnUse">
				<stop  offset="0" style="stop-color:#32150C"/>
				<stop  offset="0.541" style="stop-color:#32150C;stop-opacity:0.5"/>
				<stop  offset="1" style="stop-color:#32150C;stop-opacity:0"/>
			</radialGradient>
			<path style="fill:url(#SVGID_00000165939737695272984230000014106884089668037795_);" d="M449.89,225.55
				c0-29.3-16.41-50.1-25.74-57.75c-14.94-12.2-32.88-16.63-50.89-18.06v7.62c39.96,6.72,61.05,36.23,61.05,73.82
				c0,1.82-0.05,3.6-0.12,5.37l15.34-1.77C449.77,231.7,449.89,228.62,449.89,225.55"/>
			
				<radialGradient id="SVGID_00000070090077592193862760000002929491760480332206_" cx="0" cy="0" r="1" gradientTransform="matrix(50.111 0 0 57.0372 324.1232 321.6551)" gradientUnits="userSpaceOnUse">
				<stop  offset="0" style="stop-color:#32150C"/>
				<stop  offset="0.541" style="stop-color:#32150C;stop-opacity:0.5"/>
				<stop  offset="1" style="stop-color:#32150C;stop-opacity:0"/>
			</radialGradient>
			<path style="fill:url(#SVGID_00000070090077592193862760000002929491760480332206_);" d="M367.82,321.09
				c-16.41,0-33.57-1.7-39.92-5.94c-1.05-0.8-1.77-1.61-1.85-3.11l-4.12,13.16c22.13,2.05,49.41,1.77,55.07,2.69
				c0.18,0.03,0.36,0.07,0.53,0.1l0.64-7.63C374.64,320.91,371.13,321.09,367.82,321.09"/>
			
				<linearGradient id="SVGID_00000026883246032626137090000000872968872705631922_" gradientUnits="userSpaceOnUse" x1="0" y1="0" x2="1" y2="0" gradientTransform="matrix(-31.1828 -45.0124 -39.5464 35.4927 350.3147 478.2663)">
				<stop  offset="0" style="stop-color:#FBDE00"/>
				<stop  offset="7.000000e-03" style="stop-color:#FBDE00"/>
				<stop  offset="0.0294" style="stop-color:#EBCF12;stop-opacity:0.8967"/>
				<stop  offset="0.0656" style="stop-color:#CBAF24;stop-opacity:0.7299"/>
				<stop  offset="0.111" style="stop-color:#9D802B;stop-opacity:0.5205"/>
				<stop  offset="0.1639" style="stop-color:#684D24;stop-opacity:0.2768"/>
				<stop  offset="0.2225" style="stop-color:#34170D;stop-opacity:6.908059e-03"/>
				<stop  offset="0.224" style="stop-color:#32150C;stop-opacity:0"/>
				<stop  offset="0.323" style="stop-color:#32150C"/>
				<stop  offset="0.698" style="stop-color:#32150C;stop-opacity:0.5"/>
				<stop  offset="0.877" style="stop-color:#32150C;stop-opacity:0"/>
				<stop  offset="1" style="stop-color:#32150C;stop-opacity:0"/>
			</linearGradient>
			<path style="fill:url(#SVGID_00000026883246032626137090000000872968872705631922_);" d="M359.24,467.15
				c-4.1,0-10.07,0.42-16.79-0.85c-10.45-1.7-13.43-14.86-14.55-27.17c-0.5-4.82-0.87-10.78-1.14-17.72l-14.9,5.12v23.5
				c3.54,4.07,7.86,9.1,15.92,13.86c8.53,5.04,14.66,4.53,34.44,4.53C362.22,468,361.85,467.15,359.24,467.15"/>
			
				<linearGradient id="SVGID_00000098913066196972245760000006193382932188603534_" gradientUnits="userSpaceOnUse" x1="0" y1="0" x2="1" y2="0" gradientTransform="matrix(143.1931 57.4745 50.4953 -162.9846 452.7115 414.41)">
				<stop  offset="0" style="stop-color:#32150C;stop-opacity:0"/>
				<stop  offset="0.276" style="stop-color:#32150C"/>
				<stop  offset="0.551" style="stop-color:#32150C;stop-opacity:0.5"/>
				<stop  offset="0.5679" style="stop-color:#4E331C;stop-opacity:0.566"/>
				<stop  offset="0.5962" style="stop-color:#7D6128;stop-opacity:0.6765"/>
				<stop  offset="0.6224" style="stop-color:#AC8F2A;stop-opacity:0.779"/>
				<stop  offset="0.6458" style="stop-color:#D3B721;stop-opacity:0.8704"/>
				<stop  offset="0.6655" style="stop-color:#EED20F;stop-opacity:0.9471"/>
				<stop  offset="0.679" style="stop-color:#FBDE00"/>
				<stop  offset="1" style="stop-color:#FBDE00"/>
			</linearGradient>
			<path style="fill:url(#SVGID_00000098913066196972245760000006193382932188603534_);" d="M542.4,467.15
				c-2.24,0-7.46,0-14.55-1.27c-11.19-1.7-25.37-9.34-45.51-33.54c-11.58-14.08-24.22-31.45-38.16-51.39l-9.42,12.87
				c12.74,18.23,25.99,36.35,36.77,49.34c23.87,28.79,57.83,25.32,74.24,25.32c0-0.02,0-0.04,0-0.05
				C545.76,468,545.02,467.15,542.4,467.15"/>
			
				<linearGradient id="SVGID_00000126325687526532368120000018309754750233148852_" gradientUnits="userSpaceOnUse" x1="0" y1="0" x2="1" y2="0" gradientTransform="matrix(79.1264 0 0 -90.0629 263.7534 44.2438)">
				<stop  offset="0" style="stop-color:#FBDE00"/>
				<stop  offset="0.015" style="stop-color:#FBDE00"/>
				<stop  offset="0.0313" style="stop-color:#EBCF12;stop-opacity:0.9483"/>
				<stop  offset="0.0577" style="stop-color:#CBAF24;stop-opacity:0.865"/>
				<stop  offset="0.0908" style="stop-color:#9D802B;stop-opacity:0.7603"/>
				<stop  offset="0.1293" style="stop-color:#684D24;stop-opacity:0.6384"/>
				<stop  offset="0.1719" style="stop-color:#34170D;stop-opacity:0.5035"/>
				<stop  offset="0.173" style="stop-color:#32150C;stop-opacity:0.5"/>
				<stop  offset="0.417" style="stop-color:#32150C"/>
				<stop  offset="0.647" style="stop-color:#32150C"/>
				<stop  offset="0.787" style="stop-color:#32150C;stop-opacity:0.5"/>
				<stop  offset="0.936" style="stop-color:#32150C;stop-opacity:0"/>
				<stop  offset="1" style="stop-color:#32150C;stop-opacity:0"/>
			</linearGradient>
			<path style="fill:url(#SVGID_00000126325687526532368120000018309754750233148852_);" d="M311.86,150.39
				c-2.61,0-23.87-1.27-42.15-1.27c-4.24,0-5.8,0.76-5.95,1.57c13.91-0.01,22.1-0.23,31.04,4.71c8.33,4.6,13.72,10.57,17.07,14.11
				c2.79-3.81,5.79-6.83,11.44-10.26c3.63-2.2,10.8-2.95,18.41-3.2l1.17-6.67C330.15,149.74,314.8,150.4,311.86,150.39"/>
			
				<linearGradient id="SVGID_00000045583486958522504540000017618641869448767907_" gradientUnits="userSpaceOnUse" x1="0" y1="0" x2="1" y2="0" gradientTransform="matrix(16.6266 53.6828 47.164 -18.9246 309.6528 167.4088)">
				<stop  offset="0" style="stop-color:#32150C"/>
				<stop  offset="0.182" style="stop-color:#32150C;stop-opacity:0.5"/>
				<stop  offset="0.478" style="stop-color:#32150C;stop-opacity:0"/>
				<stop  offset="1" style="stop-color:#32150C;stop-opacity:0"/>
			</linearGradient>
			<path style="fill:url(#SVGID_00000045583486958522504540000017618641869448767907_);" d="M320.93,160.77
				c-4.17,2.83-6.7,5.5-9.06,8.73v55.25l14.18-5.67V170.1L320.93,160.77"/>
			
				<linearGradient id="SVGID_00000082368250787791752120000008827836705281355197_" gradientUnits="userSpaceOnUse" x1="0" y1="0" x2="1" y2="0" gradientTransform="matrix(-19.2939 62.4466 54.8636 21.9606 425.4458 336.0916)">
				<stop  offset="0" style="stop-color:#32150C"/>
				<stop  offset="0.182" style="stop-color:#32150C;stop-opacity:0.5"/>
				<stop  offset="0.397" style="stop-color:#32150C;stop-opacity:0"/>
				<stop  offset="1" style="stop-color:#32150C;stop-opacity:0"/>
			</linearGradient>
			<path style="fill:url(#SVGID_00000082368250787791752120000008827836705281355197_);" d="M404.75,323.63l-6.88-0.64
				c-1.4,2.43-3.26,9.62-3.94,9.62c8.09,12.89,24.01,37.14,40.83,61.21l9.42-12.87C432.07,363.62,418.97,344.36,404.75,323.63"/>
			
				<radialGradient id="SVGID_00000045589736525929954090000007011934110215491211_" cx="0" cy="0" r="1" gradientTransform="matrix(32.8801 0 0 37.4247 418.6042 191.7175)" gradientUnits="userSpaceOnUse">
				<stop  offset="0" style="stop-color:#FFFFFF;stop-opacity:0.85"/>
				<stop  offset="0.38" style="stop-color:#FFFFFF;stop-opacity:0.5"/>
				<stop  offset="1" style="stop-color:#FFFFFF;stop-opacity:0"/>
			</radialGradient>
			<path style="fill:url(#SVGID_00000045589736525929954090000007011934110215491211_);" d="M434.31,231.18
				c0-37.49-20.98-66.94-60.73-73.76v8.21c26.01,8.25,42.26,33.77,44.66,71.95h15.91C434.24,235.47,434.31,233.35,434.31,231.18"/>
			
				<radialGradient id="SVGID_00000023240281258654256160000007605211810143135893_" cx="0" cy="0" r="1" gradientTransform="matrix(23.8949 3.719 -1.8742 15.6005 292.232 153.4723)" gradientUnits="userSpaceOnUse">
				<stop  offset="0" style="stop-color:#FFFFFF;stop-opacity:0.85"/>
				<stop  offset="0.62" style="stop-color:#FFFFFF;stop-opacity:0.5"/>
				<stop  offset="1" style="stop-color:#FFFFFF;stop-opacity:0"/>
			</radialGradient>
			<path style="fill:url(#SVGID_00000023240281258654256160000007605211810143135893_);" d="M311.86,169.5
				c-3.35-3.53-8.73-9.5-17.07-14.11c-8.95-4.94-17.13-4.72-31.04-4.71c-0.01,0.04-0.01,0.09-0.01,0.13c0,0.85,1.49,1.27,4.85,1.27
				c4.85,0,7.83,0.42,10.45,0.85c11.62,2,15.26,11.97,16.26,25.23h16.57L311.86,169.5"/>
			
				<radialGradient id="SVGID_00000183937522729019029130000001195148888883375794_" cx="0" cy="0" r="1" gradientTransform="matrix(32.3914 0 0 21.5905 299.6142 477.234)" gradientUnits="userSpaceOnUse">
				<stop  offset="0" style="stop-color:#FFFFFF;stop-opacity:0.85"/>
				<stop  offset="0.423" style="stop-color:#FFFFFF;stop-opacity:0.85"/>
				<stop  offset="1" style="stop-color:#FFFFFF;stop-opacity:0"/>
			</radialGradient>
			<path style="fill:url(#SVGID_00000183937522729019029130000001195148888883375794_);" d="M327.78,463.89
				c-8.06-4.76-12.38-9.8-15.92-13.86c-3.17,3.83-8.42,9.05-15.09,13.56c-8.01,5.42-13.92,4.96-27.43,4.96
				c0.09,0.51,0.84,1.57,5.96,1.57c11.19,0,34.69-1.27,36.56-1.27s24.25,1.27,42.15,1.27c7.83,0,8.21-1.27,8.21-1.7
				C342.44,468.42,336.3,468.94,327.78,463.89"/>
			
				<radialGradient id="SVGID_00000036936746917312943020000015377360870040876734_" cx="0" cy="0" r="1" gradientTransform="matrix(51.4353 0 0 58.5445 322.549 328.3468)" gradientUnits="userSpaceOnUse">
				<stop  offset="0" style="stop-color:#FFFFFF;stop-opacity:0.85"/>
				<stop  offset="0.682" style="stop-color:#FFFFFF;stop-opacity:0.5"/>
				<stop  offset="1" style="stop-color:#FFFFFF;stop-opacity:0"/>
			</radialGradient>
			<path style="fill:url(#SVGID_00000036936746917312943020000015377360870040876734_);" d="M321.93,325.19l4.19,8.55
				c0.11-0.34,0.38-0.34,1.04-0.34l49.24,0.85c0.01,0,0.02,0,0.03,0l0.37-6.4C370.75,326.97,343.83,327.22,321.93,325.19"/>
			
				<radialGradient id="SVGID_00000049928732420092391730000015772815474894151328_" cx="0" cy="0" r="1" gradientTransform="matrix(13.1162 0 0 14.9291 399.6871 325.5317)" gradientUnits="userSpaceOnUse">
				<stop  offset="0" style="stop-color:#FDFEFF;stop-opacity:0.85"/>
				<stop  offset="0.073" style="stop-color:#FDFEFF;stop-opacity:0.85"/>
				<stop  offset="0.3943" style="stop-color:#F0E1AA;stop-opacity:0.5554"/>
				<stop  offset="0.691" style="stop-color:#E7CE68;stop-opacity:0.2833"/>
				<stop  offset="0.8988" style="stop-color:#E1C337;stop-opacity:0.0928"/>
				<stop  offset="1" style="stop-color:#DFBF24;stop-opacity:0"/>
			</radialGradient>
			<path style="fill:url(#SVGID_00000049928732420092391730000015772815474894151328_);" d="M397.87,323l6.88,0.64
				c5.92-6.22,11.15-12.32,15.76-18.32l-6.45-3.92C408.01,311.11,401.92,318.31,397.87,323"/>
			
				<radialGradient id="SVGID_00000041276640897212167310000007775097497152322480_" cx="0" cy="0" r="1" gradientTransform="matrix(0 155.7833 5.5951 0 311.8608 314.475)" gradientUnits="userSpaceOnUse">
				<stop  offset="0" style="stop-color:#32150C;stop-opacity:0.5"/>
				<stop  offset="1" style="stop-color:#32150C;stop-opacity:0"/>
			</radialGradient>
			<path style="fill:url(#SVGID_00000041276640897212167310000007775097497152322480_);" d="M359.24,467.15
				c-4.1,0-10.07,0.42-16.79-0.85c-10.45-1.7-13.43-14.86-14.55-27.17c-1.87-17.83-1.87-51.38-1.87-92.14V335.1
				c0-0.71,0-1.12,0.08-1.36l-4.19-8.55l4.12-13.16c-0.01-0.1-0.02-0.18-0.02-0.29V169.5c0-1.25,0.2-2.05,0.57-2.62l-3.31-7.64
				c-5.65,3.43-8.65,6.45-11.44,10.26v153.81v126.72c3.54,4.07,7.86,9.1,15.92,13.86c8.53,5.04,14.66,4.53,34.44,4.53
				C362.22,468,361.85,467.15,359.24,467.15"/>
			
				<radialGradient id="SVGID_00000000944537053110482670000018046800899710310538_" cx="0" cy="0" r="1" gradientTransform="matrix(0 752.578 4.225 0 311.8632 310.8956)" gradientUnits="userSpaceOnUse">
				<stop  offset="0" style="stop-color:#FFFFFF;stop-opacity:0.7"/>
				<stop  offset="0.936" style="stop-color:#FFFFFF;stop-opacity:0"/>
				<stop  offset="1" style="stop-color:#FFFFFF;stop-opacity:0"/>
			</radialGradient>
			<path style="fill:url(#SVGID_00000000944537053110482670000018046800899710310538_);" d="M294.79,155.4
				c-8.95-4.94-17.13-4.72-31.04-4.71c-0.01,0.04-0.01,0.09-0.01,0.13c0,0.85,1.49,1.27,4.85,1.27c4.85,0,7.83,0.42,10.45,0.85
				c12.31,2.12,15.67,13.16,16.41,27.6c0.75,13.59,0.75,25.48,0.75,91.71v48.59v26.14c0,40.76,0,74.31-1.87,92.14
				c-1.49,12.31-3.36,25.48-10.82,27.17c-3.36,0.85-7.83,0.85-11.19,0.85c-2.61,0-2.98,0.85-2.98,1.27c0,0.04,0,0.08,0.01,0.13
				c13.51,0,19.42,0.46,27.43-4.96c6.67-4.51,11.92-9.73,15.09-13.56V323.31V169.5C308.51,165.97,303.13,160,294.79,155.4"/>
		</g>
	</g>
</g>
<text transform="matrix(1 0 0 1 164.6767 548.9394)" class="st40 st41 st42">Creations</text>
</svg>
